<?xml version="1.0" encoding="utf-8"?>
<!-- Generator: Adobe Illustrator 24.2.1, SVG Export Plug-In . SVG Version: 6.00 Build 0)  -->
<svg version="1.1" id="Capa_1" xmlns="http://www.w3.org/2000/svg" xmlns:xlink="http://www.w3.org/1999/xlink" x="0px" y="0px"
	 viewBox="0 0 1920 1080" style="enable-background:new 0 0 1920 1080;" xml:space="preserve">
<style type="text/css">
	.st0{fill:#FFFFFF;}
</style>
<g>
	<path class="st0" d="M915.96,520.22h-24.93c-1.91,0-3.46,1.55-3.46,3.46v24.93c0,1.91,1.55,3.46,3.46,3.46h7.27l5.19,8.16
		l5.19-8.16h7.27c1.91,0,3.46-1.55,3.46-3.46v-24.93C919.42,521.77,917.87,520.22,915.96,520.22z"/>
	<g>
		<path class="st0" d="M936.86,542.2c-0.44,0.13-0.92,0.23-1.44,0.31c-0.52,0.08-1.03,0.12-1.55,0.12c-0.84,0-1.57-0.09-2.19-0.27
			c-0.62-0.18-1.13-0.52-1.54-1.01c-0.41-0.5-0.71-1.18-0.91-2.05c-0.2-0.87-0.3-1.99-0.3-3.35c0-1.35,0.11-2.47,0.34-3.34
			c0.23-0.88,0.56-1.57,1-2.08c0.44-0.51,0.97-0.86,1.61-1.06c0.64-0.2,1.36-0.3,2.16-0.3c0.49,0,0.98,0.04,1.46,0.1
			c0.48,0.07,0.94,0.17,1.36,0.29l-0.24,1.73c-0.4-0.11-0.8-0.2-1.21-0.26c-0.41-0.06-0.82-0.09-1.22-0.09
			c-0.51,0-0.96,0.06-1.36,0.19c-0.39,0.13-0.72,0.37-0.98,0.73c-0.26,0.36-0.46,0.86-0.59,1.5c-0.13,0.64-0.19,1.48-0.19,2.52
			c0,1.05,0.06,1.9,0.18,2.55c0.12,0.65,0.31,1.16,0.56,1.52c0.25,0.36,0.57,0.61,0.96,0.73c0.39,0.13,0.86,0.19,1.41,0.19
			c0.41,0,0.81-0.03,1.21-0.1c0.4-0.07,0.8-0.17,1.22-0.29L936.86,542.2z"/>
		<path class="st0" d="M944.02,536.02c0-0.45-0.13-0.79-0.4-1.01c-0.27-0.22-0.71-0.34-1.33-0.34c-0.42,0-0.86,0.03-1.31,0.09
			c-0.46,0.06-0.9,0.14-1.35,0.24l-0.19-1.65c0.49-0.13,1.01-0.22,1.56-0.3s1.1-0.11,1.64-0.11c0.64,0,1.18,0.06,1.63,0.18
			c0.44,0.12,0.8,0.3,1.08,0.53c0.27,0.24,0.47,0.55,0.59,0.92c0.12,0.37,0.18,0.82,0.18,1.33v6.51h-1.75l-0.12-0.86
			c-0.44,0.29-0.91,0.53-1.41,0.74c-0.5,0.21-1.02,0.31-1.58,0.31c-0.79,0-1.44-0.23-1.95-0.68c-0.51-0.45-0.76-1.14-0.76-2.06
			c0-0.49,0.08-0.93,0.23-1.31c0.15-0.39,0.41-0.71,0.76-0.98c0.36-0.26,0.82-0.46,1.41-0.6c0.58-0.14,1.3-0.21,2.15-0.21h0.93
			V536.02z M943.14,538.24c-0.52,0-0.96,0.03-1.31,0.08c-0.35,0.06-0.63,0.15-0.84,0.27c-0.21,0.13-0.36,0.28-0.44,0.46
			c-0.08,0.18-0.12,0.4-0.12,0.65c0,0.44,0.11,0.75,0.34,0.95c0.23,0.19,0.55,0.29,0.95,0.29c0.38,0,0.75-0.07,1.09-0.22
			c0.34-0.15,0.74-0.37,1.2-0.66v-1.82H943.14z"/>
		<path class="st0" d="M952.31,534.32c0.49-0.46,0.96-0.82,1.4-1.07c0.44-0.25,0.9-0.38,1.36-0.38c0.29,0,0.55,0.03,0.79,0.08
			c0.23,0.06,0.46,0.15,0.68,0.27l-0.33,2.03c-0.2-0.13-0.41-0.23-0.65-0.3c-0.23-0.07-0.49-0.11-0.77-0.11
			c-0.19,0-0.36,0.03-0.53,0.08c-0.17,0.05-0.34,0.12-0.52,0.22c-0.18,0.09-0.37,0.21-0.56,0.36c-0.19,0.14-0.41,0.3-0.66,0.48v4.79
			h2.59v1.67h-6.86v-1.67h2.17v-5.93h-2.07v-1.69h3.82L952.31,534.32z"/>
		<path class="st0" d="M965.59,540.75v1.67h-4.99v-12.18h-2.73v-1.67h4.83v12.18H965.59z"/>
		<path class="st0" d="M975.37,537.71c0,0.96-0.09,1.76-0.28,2.4c-0.19,0.64-0.45,1.15-0.8,1.53c-0.35,0.38-0.77,0.65-1.27,0.81
			c-0.5,0.16-1.05,0.23-1.67,0.23c-0.64,0-1.21-0.07-1.69-0.22c-0.49-0.14-0.9-0.4-1.23-0.76c-0.33-0.36-0.58-0.86-0.76-1.48
			c-0.17-0.62-0.26-1.42-0.26-2.38s0.09-1.76,0.28-2.4c0.19-0.64,0.45-1.15,0.8-1.53c0.34-0.38,0.76-0.65,1.25-0.81
			c0.49-0.16,1.05-0.24,1.68-0.24c0.64,0,1.2,0.07,1.69,0.22c0.49,0.15,0.9,0.4,1.24,0.76c0.34,0.36,0.59,0.86,0.77,1.48
			C975.28,535.96,975.37,536.75,975.37,537.71z M973.27,537.79c0-0.65-0.04-1.18-0.11-1.59c-0.08-0.41-0.19-0.74-0.35-0.98
			c-0.16-0.24-0.36-0.4-0.6-0.49c-0.24-0.09-0.52-0.13-0.84-0.13s-0.59,0.04-0.82,0.13c-0.23,0.09-0.43,0.25-0.59,0.48
			s-0.28,0.55-0.35,0.97c-0.07,0.41-0.1,0.94-0.1,1.59c0,0.65,0.03,1.19,0.1,1.61c0.07,0.42,0.19,0.75,0.35,0.99
			c0.16,0.24,0.36,0.4,0.59,0.49c0.23,0.09,0.51,0.13,0.84,0.13c0.31,0,0.59-0.04,0.82-0.13c0.24-0.09,0.43-0.25,0.59-0.48
			c0.16-0.23,0.28-0.56,0.35-0.98C973.23,538.97,973.27,538.44,973.27,537.79z"/>
		<path class="st0" d="M977.79,540.6c0.48,0.11,0.97,0.2,1.47,0.27c0.5,0.07,0.97,0.1,1.42,0.1c0.4,0,0.73-0.03,0.99-0.08
			c0.26-0.05,0.48-0.12,0.64-0.22c0.16-0.09,0.27-0.21,0.33-0.34c0.06-0.13,0.09-0.28,0.09-0.44c0-0.17-0.03-0.32-0.09-0.44
			c-0.06-0.12-0.17-0.23-0.35-0.32s-0.41-0.19-0.71-0.29c-0.3-0.1-0.69-0.22-1.16-0.36c-0.5-0.15-0.93-0.3-1.28-0.44
			c-0.35-0.14-0.64-0.32-0.87-0.52c-0.23-0.21-0.39-0.45-0.5-0.74c-0.1-0.29-0.16-0.64-0.16-1.07c0-0.9,0.32-1.59,0.97-2.06
			c0.65-0.48,1.63-0.71,2.95-0.71c0.21,0,0.43,0.01,0.66,0.03c0.23,0.02,0.46,0.04,0.68,0.07c0.22,0.03,0.44,0.06,0.65,0.1
			s0.4,0.09,0.58,0.14l-0.21,1.61c-0.37-0.1-0.77-0.18-1.2-0.23c-0.43-0.06-0.84-0.08-1.25-0.08c-0.71,0-1.2,0.08-1.47,0.25
			c-0.27,0.17-0.4,0.42-0.4,0.74c0,0.16,0.03,0.29,0.1,0.39s0.18,0.2,0.34,0.29c0.16,0.09,0.38,0.18,0.66,0.27
			c0.28,0.09,0.65,0.2,1.1,0.34c0.51,0.15,0.96,0.3,1.34,0.45c0.38,0.15,0.68,0.33,0.92,0.53c0.23,0.21,0.41,0.46,0.52,0.77
			c0.11,0.31,0.17,0.68,0.17,1.14c0,0.91-0.33,1.62-0.98,2.11c-0.65,0.5-1.71,0.74-3.17,0.74c-0.54,0-1.05-0.03-1.54-0.09
			c-0.49-0.06-0.97-0.16-1.43-0.28L977.79,540.6z"/>
		<path class="st0" d="M992.05,541.09c0,0.28-0.02,0.51-0.06,0.7c-0.04,0.2-0.12,0.35-0.23,0.47c-0.11,0.12-0.26,0.2-0.44,0.24
			c-0.18,0.04-0.41,0.06-0.67,0.06c-0.27,0-0.49-0.02-0.67-0.06c-0.18-0.04-0.33-0.13-0.44-0.24c-0.11-0.12-0.19-0.27-0.23-0.47
			c-0.04-0.19-0.06-0.43-0.06-0.7c0-0.27,0.02-0.51,0.06-0.7c0.04-0.19,0.12-0.34,0.23-0.45c0.11-0.1,0.26-0.18,0.44-0.23
			c0.18-0.05,0.41-0.08,0.67-0.08c0.27,0,0.49,0.03,0.67,0.08c0.18,0.05,0.33,0.13,0.44,0.23c0.11,0.11,0.19,0.26,0.23,0.45
			C992.02,540.58,992.05,540.82,992.05,541.09z"/>
		<path class="st0" d="M996.54,529.38h3.3c0.78,0,1.45,0.09,2.03,0.26s1.04,0.5,1.4,0.97c0.37,0.47,0.64,1.12,0.81,1.95
			c0.17,0.83,0.26,1.91,0.26,3.24s-0.09,2.42-0.28,3.28c-0.19,0.86-0.47,1.53-0.85,2.03c-0.38,0.5-0.86,0.84-1.43,1.03
			c-0.58,0.19-1.25,0.29-2.03,0.29h-3.21V529.38z M999.8,541.22c0.54,0,1.01-0.07,1.41-0.21c0.4-0.14,0.73-0.41,1-0.79
			c0.26-0.38,0.46-0.92,0.59-1.62c0.13-0.7,0.19-1.61,0.19-2.73c0-1.12-0.06-2.03-0.19-2.72c-0.13-0.69-0.32-1.23-0.58-1.61
			c-0.26-0.38-0.59-0.64-0.99-0.77c-0.4-0.13-0.88-0.2-1.43-0.2h-1.86v10.64H999.8z"/>
		<path class="st0" d="M1006.2,541.3h3.5v-6.94h-3.41v-1.13h4.78v8.07h2.62v1.13h-7.49V541.3z M1011.22,528.37l0.89,0.96l-2.34,2.4
			l-0.65-0.71L1011.22,528.37z"/>
		<path class="st0" d="M1021.43,535.93c0-0.57-0.16-1.01-0.48-1.29c-0.32-0.29-0.82-0.43-1.5-0.43c-0.43,0-0.87,0.03-1.31,0.08
			c-0.44,0.06-0.89,0.14-1.33,0.25l-0.12-1.11c0.47-0.13,0.95-0.22,1.45-0.29c0.5-0.07,1.01-0.1,1.54-0.1
			c0.55,0,1.02,0.06,1.42,0.18c0.4,0.12,0.72,0.3,0.97,0.53c0.25,0.24,0.43,0.53,0.55,0.88c0.12,0.35,0.17,0.76,0.17,1.22v6.57
			h-1.14l-0.09-0.88c-0.49,0.29-0.99,0.54-1.51,0.75c-0.52,0.21-1.07,0.32-1.65,0.32c-0.77,0-1.4-0.21-1.89-0.64
			c-0.49-0.43-0.73-1.09-0.73-1.99c0-0.49,0.07-0.92,0.22-1.29c0.15-0.37,0.4-0.68,0.75-0.95c0.36-0.26,0.82-0.46,1.41-0.59
			s1.31-0.2,2.17-0.2h1.1V535.93z M1020.38,538c-0.66,0-1.21,0.04-1.64,0.11c-0.43,0.07-0.77,0.19-1.02,0.35
			c-0.26,0.16-0.44,0.35-0.53,0.59c-0.1,0.24-0.15,0.51-0.15,0.83c0,0.57,0.15,0.99,0.44,1.24c0.29,0.25,0.69,0.38,1.19,0.38
			c0.48,0,0.93-0.08,1.35-0.25c0.42-0.17,0.89-0.41,1.42-0.73V538H1020.38z"/>
		<path class="st0" d="M1025.47,541.58l5.28-7.19h-4.95v-1.16h6.86v0.81l-5.34,7.23h5.46v1.16h-7.31V541.58z"/>
	</g>
	<g>
		<g>
			<path d="M900.78,544.76c-0.11,0.02-0.23,0.04-0.37,0.05c-0.14,0.01-0.31,0.01-0.5,0.01c-1.25,0-2.17-0.27-2.76-0.82
				c-0.59-0.54-0.89-1.41-0.89-2.6v-1.98c0-0.35-0.05-0.67-0.14-0.96c-0.1-0.29-0.25-0.53-0.47-0.74c-0.22-0.21-0.51-0.39-0.86-0.53
				c-0.35-0.15-0.78-0.25-1.29-0.31v-1.69c0.51-0.08,0.94-0.19,1.29-0.33c0.35-0.15,0.64-0.32,0.86-0.53
				c0.22-0.21,0.37-0.45,0.47-0.73c0.09-0.28,0.14-0.58,0.14-0.91v-1.94c0-1.17,0.29-2,0.87-2.51c0.58-0.51,1.51-0.76,2.78-0.76
				c0.19,0,0.35,0,0.5,0.01c0.14,0.01,0.27,0.02,0.37,0.03v1.54c-0.52,0-0.95,0.03-1.28,0.1c-0.34,0.06-0.6,0.17-0.8,0.31
				c-0.19,0.15-0.33,0.34-0.41,0.57c-0.08,0.23-0.12,0.53-0.12,0.88v1.92c0,0.43-0.04,0.81-0.12,1.14c-0.08,0.33-0.21,0.62-0.4,0.86
				c-0.19,0.25-0.43,0.46-0.71,0.65c-0.28,0.18-0.64,0.35-1.06,0.5c0.43,0.14,0.78,0.3,1.06,0.49c0.28,0.19,0.52,0.42,0.71,0.68
				c0.19,0.27,0.32,0.58,0.4,0.95c0.08,0.37,0.12,0.79,0.12,1.27v1.98c0,0.34,0.04,0.64,0.12,0.88c0.08,0.25,0.22,0.44,0.42,0.59
				c0.19,0.15,0.46,0.25,0.8,0.31c0.34,0.06,0.76,0.1,1.27,0.1V544.76z"/>
		</g>
		<g>
			<path d="M906.22,543.24c0.52,0,0.95-0.03,1.28-0.1c0.34-0.06,0.6-0.17,0.8-0.31c0.2-0.15,0.33-0.34,0.41-0.58
				s0.12-0.54,0.12-0.89v-2.15c0-0.42,0.04-0.79,0.11-1.12c0.08-0.33,0.21-0.62,0.4-0.87c0.19-0.25,0.43-0.47,0.71-0.65
				c0.28-0.18,0.64-0.34,1.06-0.48c-0.43-0.13-0.78-0.29-1.06-0.48c-0.28-0.2-0.52-0.43-0.71-0.69c-0.19-0.27-0.32-0.58-0.4-0.95
				c-0.08-0.37-0.11-0.79-0.11-1.27v-1.73c0-0.35-0.04-0.65-0.12-0.89s-0.22-0.44-0.42-0.59c-0.2-0.15-0.46-0.26-0.8-0.32
				c-0.34-0.06-0.76-0.1-1.27-0.1v-1.54c0.11-0.01,0.23-0.02,0.37-0.03c0.14-0.01,0.31-0.01,0.5-0.01c1.24,0,2.16,0.27,2.76,0.82
				c0.6,0.55,0.89,1.41,0.89,2.6v1.75c0,0.36,0.05,0.67,0.14,0.95c0.1,0.28,0.25,0.53,0.47,0.74c0.22,0.22,0.51,0.39,0.86,0.53
				c0.35,0.14,0.78,0.25,1.29,0.32v1.69c-0.51,0.06-0.94,0.17-1.29,0.32c-0.35,0.15-0.64,0.33-0.86,0.53
				c-0.22,0.2-0.37,0.44-0.47,0.72s-0.14,0.59-0.14,0.93v2.17c0,1.17-0.29,2-0.87,2.51c-0.58,0.51-1.5,0.76-2.78,0.76
				c-0.19,0-0.35,0-0.5-0.01c-0.14-0.01-0.26-0.02-0.37-0.05V543.24z"/>
		</g>
	</g>
</g>
</svg>
